<svg width="326" height="380" viewBox="0 0 326 380" fill="none" xmlns="http://www.w3.org/2000/svg">
<path d="M4.05592 28.7876C4.22149 27.2976 5.20643 26.0252 6.60748 25.4914L71.6262 0.722372C72.1711 0.514787 72.7548 0.428849 73.3365 0.47058L309.805 17.437C311.933 17.5896 313.567 19.385 313.518 21.5176L306.113 347.323C306.068 349.308 304.574 350.959 302.604 351.202L71.1879 379.733C69.9419 379.887 68.6961 379.446 67.8233 378.544L6.49679 315.139C5.79619 314.414 5.39481 313.452 5.37291 312.445L0 65.2909L4.05592 28.7876Z" fill="#A21360"/>
<path d="M64.9908 4.49117C64.9318 2.26608 66.734 0.378596 68.9597 0.347213C169.204 -1.06633 225.2 2.20219 315.128 3.59247C317.281 3.62575 319.049 5.38754 319.096 7.53984C321.61 122.976 324.466 192.153 325.469 307.132C325.487 309.18 323.937 310.943 321.901 311.174C248.975 319.455 197.843 327.251 82.227 338.461C79.9006 338.687 77.8312 336.868 77.7927 334.531C76.1608 235.263 68.9624 154.355 64.9908 4.49117Z" fill="#EA1889"/>
<path d="M96.352 50.6096C96.291 47.3492 98.8667 44.6372 102.125 44.5084C177.839 41.5147 219.227 41.6014 283.318 44.4957C286.389 44.6344 288.865 47.0769 289.035 50.1464C291.965 103.119 292.575 135.314 292.054 187.857C292.013 191.944 288.883 195.356 284.813 195.738C229.421 200.941 188.085 203.469 107.627 206.714C104.333 206.847 101.525 204.297 101.37 201.004C98.6564 143.231 97.4329 108.36 96.352 50.6096Z" fill="#A21360"/>
<path d="M155.42 134.672C147.69 142.495 139.703 145.527 126.186 139.02C129.27 152.557 136.382 160.8 142.902 166.1C163.109 178.591 187.915 173.953 201.489 154.664C213.827 171.999 249.48 174.068 261.375 160.579C273.271 147.09 274.518 142.554 275.256 132.072C263.06 140.014 255.3 138.73 244.719 129.516C223.772 114.642 214.453 116.16 200.286 128.85C183.123 115.655 173.264 118.439 155.42 134.672Z" fill="#EA1889"/>
</svg>
